<svg width="75" height="28" fill="none" xmlns="http://www.w3.org/2000/svg">
    <g clip-path="url(#a)">
        <rect width="28" height="28" rx="4" fill="#000"/>
        <path fill-rule="evenodd" clip-rule="evenodd" d="M28 0v28H0V0h28ZM13.925 7H8.633v14.033h3.007v-4.61h2.285c4.037 0 6.055-1.57 6.055-4.711S17.962 7 13.925 7Zm.14 2.647c1.899 0 2.847.688 2.847 2.064 0 1.377-.948 2.065-2.846 2.065H11.64v-4.13h2.426Z" fill="#FCFAF9"/>
    </g>
    <path d="M37.752 11.14c-.952 0-1.727-.322-2.324-.966-.597-.653-.896-1.559-.896-2.716v-.112c0-1.157.308-2.081.924-2.772.616-.7 1.405-1.05 2.366-1.05 1.083 0 1.862.425 2.338 1.274V.29h1.694V11H40.16V9.768c-.205.383-.532.71-.98.98a2.741 2.741 0 0 1-1.428.392Zm.42-1.344c.616 0 1.11-.205 1.484-.616.373-.41.56-1.013.56-1.806v-.112c0-.793-.173-1.39-.518-1.792-.345-.41-.83-.616-1.456-.616-.625 0-1.11.215-1.456.644-.345.42-.518 1.022-.518 1.806v.112c0 .775.173 1.367.518 1.778.355.401.817.602 1.386.602ZM43.629 11V3.678h1.694V11H43.63Zm1.54-8.806a.997.997 0 0 1-.714.28.997.997 0 0 1-.714-.28.91.91 0 0 1-.294-.686c0-.28.098-.513.294-.7a.997.997 0 0 1 .714-.28c.28 0 .518.093.714.28.196.187.294.42.294.7 0 .27-.098.5-.294.686Zm5.061 11.494c-1.092 0-1.927-.22-2.506-.658-.578-.439-.92-1.031-1.022-1.778h1.708c.15.765.752 1.148 1.806 1.148 1.363 0 2.044-.658 2.044-1.974V9.348c-.215.373-.541.695-.98.966-.43.261-.9.392-1.414.392-.933 0-1.708-.322-2.324-.966-.616-.644-.924-1.484-.924-2.52v-.098c0-1.027.313-1.88.938-2.562.626-.69 1.41-1.036 2.352-1.036 1.083 0 1.867.425 2.352 1.274v-1.12h1.694v6.776c-.01 1.055-.345 1.857-1.008 2.408-.653.55-1.558.826-2.716.826Zm.056-4.284c.597 0 1.083-.2 1.456-.602.383-.401.574-.947.574-1.638v-.098c0-.69-.177-1.232-.532-1.624-.355-.392-.835-.588-1.442-.588-.616 0-1.101.205-1.456.616-.355.41-.532.952-.532 1.624v.112c0 .663.182 1.195.546 1.596.364.401.826.602 1.386.602ZM55.73 11V3.678h1.694V11H55.73Zm1.54-8.806a.997.997 0 0 1-.715.28.997.997 0 0 1-.713-.28.91.91 0 0 1-.294-.686c0-.28.097-.513.294-.7a.997.997 0 0 1 .714-.28c.28 0 .518.093.714.28.195.187.293.42.293.7 0 .27-.098.5-.294.686Zm4.43 8.932c-.718 0-1.269-.187-1.652-.56-.373-.373-.56-.91-.56-1.61V4.952h-.98V3.678h.98v-1.61h1.694v1.61h1.61v1.274h-1.61v3.85c0 .625.28.938.84.938.327 0 .602-.047.826-.14v1.344c-.326.121-.709.182-1.148.182Zm4.383.014c-.719 0-1.307-.177-1.764-.532-.458-.364-.686-.91-.686-1.638 0-.803.34-1.39 1.022-1.764.681-.373 1.591-.56 2.73-.56h.91v-.378c0-.504-.103-.873-.308-1.106-.196-.243-.537-.364-1.022-.364-.85 0-1.316.383-1.4 1.148h-1.638c.065-.812.382-1.419.952-1.82.578-.401 1.306-.602 2.184-.602 1.95 0 2.926.891 2.926 2.674V11h-1.666v-.896c-.523.69-1.27 1.036-2.24 1.036Zm.406-1.218c.532 0 .966-.13 1.302-.392.336-.27.504-.635.504-1.092V7.71h-.868c-1.41 0-2.114.397-2.114 1.19 0 .681.392 1.022 1.176 1.022ZM71.692 11V.29h1.694V11h-1.694ZM36.52 25l-2.24-7.322h1.806l1.456 5.292 1.554-5.292h1.414l1.428 5.292 1.526-5.292h1.652L42.82 25h-1.722l-1.358-4.928L38.256 25H36.52Zm11.323.14c-.718 0-1.306-.177-1.764-.532-.457-.364-.686-.91-.686-1.638 0-.803.34-1.39 1.022-1.764.682-.373 1.592-.56 2.73-.56h.91v-.378c0-.504-.102-.873-.308-1.106-.196-.243-.536-.364-1.022-.364-.85 0-1.316.383-1.4 1.148h-1.638c.066-.812.383-1.419.952-1.82.579-.401 1.307-.602 2.184-.602 1.95 0 2.926.891 2.926 2.674V25h-1.666v-.896c-.522.69-1.27 1.036-2.24 1.036Zm.406-1.218c.532 0 .966-.13 1.302-.392.336-.27.504-.635.504-1.092v-.728h-.868c-1.41 0-2.114.397-2.114 1.19 0 .681.392 1.022 1.176 1.022ZM53.453 25V14.29h1.694V25h-1.694Zm3.52 0V14.29h1.695V25h-1.694Zm6.7.14c-1.093 0-1.984-.336-2.675-1.008-.69-.672-1.035-1.577-1.035-2.716v-.112c0-1.12.34-2.03 1.021-2.73.691-.7 1.564-1.05 2.618-1.05.99 0 1.811.308 2.465.924.662.616.994 1.54.994 2.772v.49h-5.363c.029.7.215 1.237.56 1.61.346.373.831.56 1.456.56.99 0 1.55-.373 1.68-1.12h1.638c-.12.765-.475 1.353-1.063 1.764-.588.41-1.354.616-2.296.616Zm-1.947-4.564h3.654c-.084-1.213-.676-1.82-1.777-1.82-.505 0-.925.163-1.26.49-.327.317-.533.76-.617 1.33Zm9.06 4.55c-.72 0-1.27-.187-1.653-.56-.373-.373-.56-.91-.56-1.61v-4.004h-.98v-1.274h.98v-1.61h1.695v1.61h1.61v1.274h-1.61v3.85c0 .625.28.938.84.938.326 0 .602-.047.825-.14v1.344c-.326.121-.709.182-1.148.182Z" fill="#fff"/>
    <defs>
        <clipPath id="a">
            <rect width="28" height="28" rx="4" fill="#fff"/>
        </clipPath>
    </defs>
</svg>
