<svg width="345" height="220" viewBox="0 0 345 220" fill="none" xmlns="http://www.w3.org/2000/svg">
<g opacity="0.8" clip-path="url(#clip0_1867_741)">
<path opacity="0.5" fill-rule="evenodd" clip-rule="evenodd" d="M306.379 232.796L306.061 233.092V233.527C306.061 279.533 269.513 316.793 224.471 316.793H224.451L87.9578 316.76C27.8112 316.719 -20.9741 266.961 -21 205.545L-21 15.1885C-21 -46.2382 27.8008 -96 87.9575 -96H169.367C188.733 -96 207.67 -93.8575 226.43 -88.9079C251.011 -82.4227 274.342 -71.3414 295.282 -54.7682C319.299 -35.7592 338.053 -11.0212 350.046 17.4538C360.478 42.2242 365.125 67.9611 365.125 93.7825C365.125 119.606 360.477 145.345 350.043 170.117C339.965 194.043 325.114 215.329 306.379 232.796ZM350.965 170.505C340.833 194.56 325.9 215.964 307.061 233.527C307.061 280.066 270.084 317.793 224.471 317.793H224.451L87.9575 317.76C27.2399 317.719 -21.9739 267.495 -22 205.545V15.1885C-22 -46.7715 27.2297 -97 87.9575 -97H169.367C188.808 -97 207.831 -94.849 226.685 -89.8748C251.389 -83.3572 274.847 -72.2174 295.903 -55.5523C320.053 -36.4377 338.91 -11.5631 350.967 17.0657C361.456 41.9692 366.125 67.8395 366.125 93.7825C366.125 119.728 361.454 145.6 350.965 170.505ZM288.963 225.157L289.315 224.858C308.882 208.203 324.244 187.191 334.332 163.242C343.798 140.766 348.027 117.352 348.027 93.7827C348.027 70.215 343.799 46.8027 334.334 24.3285C323.483 -1.43694 306.526 -23.8038 284.796 -41.0032C265.799 -56.0388 244.578 -66.1181 222.146 -72.0363C204.885 -76.5902 187.367 -78.5724 169.367 -78.5724H92.6076C39.3258 -78.5724 -3.90186 -34.4968 -3.90186 19.9156V200.822C-3.87893 255.226 39.335 299.298 92.6079 299.334L216.688 299.364H216.688H216.688H216.689H216.689H216.689H216.689H216.69H216.69H216.69H216.69H216.691H216.691H216.691H216.691H216.692H216.692H216.692H216.692H216.692H216.693H216.693H216.693H216.693H216.694H216.694H216.694H216.694H216.695H216.695H216.695H216.695H216.696H216.696H216.696H216.696H216.697H216.697H216.697H216.697H216.697H216.698H216.698H216.698H216.698H216.699H216.699H216.699H216.699H216.7H216.7H216.7H216.7H216.701H216.701H216.701H216.701H216.702H216.702H216.702H216.702H216.702H216.703H216.703H216.703H216.703H216.704H216.704H216.704H216.704H216.705H216.705H216.705C256.593 299.364 288.963 266.367 288.963 225.62V225.157ZM289.963 225.62C309.651 208.862 325.106 187.722 335.253 163.63C344.776 141.021 349.027 117.474 349.027 93.7827C349.027 70.0938 344.777 46.5481 335.256 23.9403C324.34 -1.97879 307.28 -24.4824 285.416 -41.7873C266.303 -56.9149 244.956 -67.0527 222.401 -73.0032C205.046 -77.5818 187.442 -79.5724 169.367 -79.5724H92.6076C38.7546 -79.5724 -4.90186 -35.0301 -4.90186 19.9156V200.822C-4.87871 255.759 38.7637 300.297 92.6076 300.334L216.688 300.364H216.705C257.164 300.364 289.963 266.9 289.963 225.62ZM272.258 216.397L271.865 216.698V217.192C271.865 252.967 243.446 281.935 208.43 281.935H208.415L97.2579 281.908C50.8587 281.876 13.2161 243.49 13.1962 196.099V24.6427C13.1962 -22.7554 50.8506 -61.1447 97.2576 -61.1447H169.367C186.002 -61.1447 202.101 -59.3228 217.861 -55.1646C238.145 -49.8133 257.255 -40.7359 274.309 -27.2381C293.754 -11.8483 308.913 8.14742 318.623 31.2032C327.121 51.3813 330.929 72.4688 330.929 93.7828C330.929 115.098 327.12 136.188 318.621 156.367C308.91 179.422 293.75 199.417 274.306 214.805C273.627 215.343 272.944 215.874 272.258 216.397ZM272.865 217.192C272.865 253.501 244.017 282.935 208.43 282.935H208.415L97.2576 282.908C50.2874 282.876 12.2164 244.023 12.1962 196.1V24.6427C12.1962 -23.2886 50.2795 -62.1447 97.2576 -62.1447H169.367C186.076 -62.1447 202.261 -60.3145 218.117 -56.1315C238.522 -50.7481 257.759 -41.6124 274.93 -28.0222C294.508 -12.5269 309.77 7.60557 319.544 30.815C328.099 51.127 331.929 72.3481 331.929 93.7828C331.929 115.219 328.098 136.442 319.542 156.755C309.767 179.964 294.504 200.095 274.927 215.589C274.243 216.131 273.556 216.665 272.865 217.192ZM254.767 207.02L255.212 206.723C258.143 204.767 261.014 202.68 263.82 200.459C280.978 186.88 294.34 169.256 302.909 148.911C310.441 131.028 313.831 112.264 313.831 93.2018C313.831 74.1414 310.442 55.3785 302.911 37.4967C294.342 17.1506 280.981 -0.47406 263.823 -14.0542C248.712 -26.0142 231.712 -34.0897 213.577 -38.8741C199.316 -42.6365 184.636 -44.2981 169.367 -44.2981H101.908C62.3755 -44.2981 30.2942 -11.5951 30.2942 28.7887V190.795V190.796C30.3114 231.173 62.3826 263.873 101.908 263.9L199.526 263.924H199.526H199.527H199.527H199.527H199.527H199.528H199.528H199.528H199.528H199.529H199.529H199.529H199.529H199.53H199.53H199.53H199.53H199.53H199.531H199.531H199.531H199.531H199.532H199.532H199.532H199.532H199.533H199.533H199.533H199.533H199.533H199.534H199.534H199.534H199.534H199.535H199.535H199.535H199.535H199.536H199.536H199.536H199.536H199.537H199.537H199.537H199.537H199.537H199.538H199.538H199.538H199.538H199.539H199.539C230.022 263.924 254.767 238.706 254.767 207.555V207.02ZM199.539 264.924C230.593 264.924 255.767 239.239 255.767 207.555C258.721 205.584 261.613 203.481 264.441 201.243C281.732 187.558 295.197 169.798 303.831 149.299C311.42 131.282 314.831 112.384 314.831 93.2018C314.831 74.0212 311.42 55.1248 303.833 37.1086C295.199 16.6088 281.735 -1.15262 264.443 -14.8383C249.215 -26.891 232.088 -35.0246 213.832 -39.841C199.476 -43.6284 184.71 -45.2981 169.367 -45.2981H101.908C61.8043 -45.2981 29.2942 -12.1283 29.2942 28.7887V190.796C29.3114 231.706 61.8111 264.873 101.908 264.9L199.526 264.924H199.539ZM238.181 196.834L237.669 197.121V197.707C237.669 224.67 216.251 246.494 189.872 246.494H189.872H189.872H189.872H189.871H189.871H189.871H189.871H189.87H189.87H189.87H189.87H189.869H189.869H189.869H189.869H189.868H189.868H189.868H189.868H189.868H189.867H189.867H189.867H189.867H189.866H189.866H189.866H189.866H189.865H189.865H189.865H189.865H189.864H189.864H189.864H189.864H189.864H189.863H189.863H189.863H189.863H189.862H189.862H189.862H189.862H189.861H189.861H189.861L106.558 246.474C73.9063 246.451 47.4065 219.437 47.3922 186.073V186.072V33.5156C47.3922 0.146172 73.9003 -26.8706 106.558 -26.8706H169.367C183.271 -26.8706 196.532 -25.3693 209.293 -22.0026C225.279 -17.7851 240.168 -10.7114 253.336 -0.289368C282.427 22.7355 296.733 56.6627 296.733 93.2017C296.733 129.742 282.425 163.67 253.334 186.694C248.503 190.517 243.442 193.889 238.181 196.834ZM46.3922 33.5156V186.073C46.4065 219.97 73.3348 247.451 106.558 247.474L189.861 247.494H189.872C216.822 247.494 238.669 225.203 238.669 197.707C243.976 194.736 249.082 191.334 253.954 187.478C283.314 164.241 297.733 130.009 297.733 93.2017C297.733 56.3957 283.316 22.1638 253.957 -1.07349C240.671 -11.5887 225.654 -18.7202 209.548 -22.9695C196.691 -26.3614 183.344 -27.8706 169.367 -27.8706H106.558C73.3292 -27.8706 46.3922 -0.387085 46.3922 33.5156ZM179.197 229.064H179.197H179.207C202.033 229.064 220.571 210.178 220.571 186.84V186.187L221.169 185.924C228.879 182.541 236.14 178.237 242.848 172.929C267.495 153.422 279.635 124.645 279.635 93.2018C279.635 61.7592 267.496 32.9828 242.85 13.4756C231.625 4.59165 218.846 -1.48025 205.008 -5.131C193.747 -8.10189 181.906 -9.44299 169.367 -9.44299H111.208C85.4252 -9.44299 64.4902 11.8876 64.4902 38.2426V181.35V181.35C64.5016 207.701 85.43 229.03 111.208 229.047L179.197 229.064ZM111.208 230.047C84.8585 230.029 63.5016 208.234 63.4902 181.35V38.2426C63.4902 11.3543 84.854 -10.443 111.208 -10.443H169.367C181.977 -10.443 193.906 -9.09422 205.263 -6.09792C219.22 -2.41564 232.127 3.71374 243.47 12.6915C268.387 32.4125 280.635 61.4948 280.635 93.2018C280.635 124.91 268.385 153.992 243.468 173.713C236.691 179.077 229.355 183.424 221.571 186.84C221.571 210.712 202.604 230.064 179.207 230.064H179.197L111.208 230.047ZM203.473 176.658C203.481 195.753 188.507 211.245 169.93 211.635L169.929 211.634L169.204 211.634L115.858 211.621C96.9537 211.608 81.5966 195.965 81.5883 176.627V176.627V42.9696C81.5883 23.6289 96.95 7.98462 115.858 7.98462H169.367C193.911 7.98462 215.146 13.6132 232.363 27.2406C252.565 43.2294 262.537 66.8545 262.537 93.2018C262.537 119.55 252.563 143.175 232.361 159.164C223.904 165.857 214.483 170.617 204.184 173.73L203.473 173.945V174.687V176.657V176.658ZM115.858 212.621C96.3822 212.608 80.5966 196.498 80.5883 176.627V42.9696C80.5883 23.0957 96.3789 6.98462 115.858 6.98462H169.367C194.065 6.98462 215.541 12.6505 232.984 26.4565C253.458 42.6611 263.537 66.5937 263.537 93.2018C263.537 119.81 253.457 143.743 232.982 159.948C224.419 166.725 214.884 171.541 204.473 174.687V176.657C204.482 196.531 188.691 212.642 169.212 212.642C169.209 212.642 169.207 212.642 169.204 212.634L115.858 212.621ZM169.254 211.642L169.212 211.642C169.208 211.642 169.224 211.641 169.254 211.642ZM186.375 159.842L187.223 159.712C200.584 157.661 212.183 153.069 221.875 145.399C237.63 132.929 245.439 114.456 245.439 93.2018C245.439 71.9479 237.631 53.475 221.877 41.0055C208.097 30.0991 190.452 25.4122 169.367 25.4122H120.508C108.475 25.4122 98.6863 35.3702 98.6863 47.6966V171.904V171.904C98.6917 184.229 108.477 194.186 120.508 194.194L164.554 194.205L165.045 194.205C176.854 193.942 186.38 184.086 186.375 171.927V171.926V160.701V159.842ZM164.559 194.211C164.556 194.211 164.571 194.21 164.6 194.211L164.559 194.211ZM120.508 195.194C107.906 195.186 97.6917 184.762 97.6863 171.904V47.6966C97.6863 34.837 107.904 24.4122 120.508 24.4122H169.367C190.596 24.4122 208.486 29.1321 222.497 40.2214C238.529 52.9098 246.439 71.6927 246.439 93.2018C246.439 114.711 238.528 133.494 222.496 146.183C212.644 153.98 200.875 158.628 187.375 160.701V171.926C187.381 184.786 177.163 195.211 164.559 195.211C164.557 195.211 164.556 195.211 164.554 195.205L120.508 195.194ZM169.277 167.195C169.279 172.433 165.18 176.66 160.12 176.776L159.904 176.776L125.158 176.768C120.001 176.764 115.787 172.493 115.784 167.182V167.181V52.4236C115.784 47.1115 120 42.8397 125.158 42.8397H169.367C186.998 42.8397 201.051 46.5872 211.39 54.7704C222.696 63.7184 228.341 77.0371 228.341 93.2018C228.341 109.366 222.695 122.685 211.389 131.633C201.227 139.676 187.478 143.434 170.27 143.561L169.277 143.568V144.56V167.195V167.195ZM125.158 177.768C119.43 177.764 114.787 173.026 114.784 167.182V52.4236C114.784 46.5783 119.429 41.8397 125.158 41.8397H169.367C187.128 41.8397 201.432 45.6137 212.011 53.9863C223.599 63.1584 229.341 76.7916 229.341 93.2018C229.341 109.612 223.599 123.245 212.01 132.417C201.612 140.646 187.616 144.433 170.277 144.56V167.195C170.28 173.04 165.635 177.779 159.906 177.779C159.906 177.779 159.905 177.779 159.905 177.778C159.905 177.778 159.904 177.777 159.904 177.776L125.158 177.768ZM159.947 176.779L159.906 176.779C159.902 176.779 159.918 176.778 159.947 176.779ZM153.179 126.136H152.179V127.136V159.347L132.882 159.342V60.2673H169.367C183.554 60.2673 194.01 63.0791 200.903 68.5353C207.753 73.9563 211.243 82.1151 211.243 93.2018C211.243 104.288 207.752 112.447 200.902 117.868C194.008 123.324 183.553 126.136 169.367 126.136H153.179ZM153.179 160.347V159.347V128.136V127.136H154.179H169.367C197.949 127.136 212.243 115.824 212.243 93.2018C212.243 70.5796 197.951 59.2673 169.367 59.2673H132.882H131.882V60.2673V160.342L152.179 160.347L153.179 160.347ZM153.179 77.3296H152.179V78.3296V108.074V109.074L153.179 109.074L170.358 109.076H170.358C177.173 109.076 182.465 107.825 186.074 105.162C189.739 102.458 191.52 98.4111 191.52 93.2043C191.52 87.9962 189.738 83.9483 186.073 81.2439C182.464 78.5814 177.172 77.3296 170.358 77.3296H153.179ZM153.179 78.3296V79.3296V108.074L170.358 108.076C183.802 108.076 190.52 103.117 190.52 93.2043C190.52 83.2887 183.799 78.3296 170.358 78.3296H154.179H153.179Z" fill="url(#paint0_linear_1867_741)"/>
</g>
<defs>
<linearGradient id="paint0_linear_1867_741" x1="-22" y1="110.397" x2="366.125" y2="110.397" gradientUnits="userSpaceOnUse">
<stop stop-color="#D247FF" stop-opacity="0"/>
<stop offset="0.645" stop-color="#D247FF" stop-opacity="0.76"/>
<stop offset="0.8" stop-color="#3097FF"/>
</linearGradient>
<clipPath id="clip0_1867_741">
<rect width="345" height="220" fill="white"/>
</clipPath>
</defs>
</svg>
